<svg height="477.60001pt" viewBox="0 0 477.60001 477.60001" width="477.60001pt" xmlns="http://www.w3.org/2000/svg"><path d="m477.601562 238.800781c0 131.886719-106.914062 238.800781-238.800781 238.800781s-238.800781-106.914062-238.800781-238.800781 106.914062-238.800781 238.800781-238.800781 238.800781 106.914062 238.800781 238.800781zm0 0" fill="#382b73"/><path d="m445.398438 238.800781c0 114.101563-92.496094 206.597657-206.597657 206.597657-114.101562 0-206.597656-92.496094-206.597656-206.597657 0-114.101562 92.496094-206.597656 206.597656-206.597656 114.101563 0 206.597657 92.496094 206.597657 206.597656zm0 0" fill="#473080"/><path d="m373.132812 143.300781h-268.667968c-6.625 0-12 5.371094-12 12v166.664063c0 6.628906 5.375 12 12 12h106.085937c-.320312 7.128906-1.492187 14.15625-3.441406 20.964844-.300781 1.042968-.640625 2.078124-.976563 3.109374-.246093.75-.472656 1.503907-.734374 2.246094-.378907 1.070313-.808594 2.125-1.226563 3.183594-.273437.683594-.527344 1.378906-.816406 2.058594-.492188 1.15625-1.035157 2.289062-1.574219 3.421875-.269531.566406-.511719 1.140625-.792969 1.695312-.84375 1.683594-1.734375 3.34375-2.6875 4.972657l-1.753906 3.011718h-29.910156c-3.644531 0-6.789063 2.007813-8.488281 4.957032-.007813-.015626-.019532-.027344-.027344-.039063-.1875.328125-.355469.671875-.507813 1.023437-.011719.03125-.027343.054688-.039062.082032-.21875.519531-.378907 1.066406-.507813 1.628906-.03125.136719-.054687.273438-.082031.414062-.105469.578126-.179687 1.164063-.179687 1.765626 0 .679687.070312 1.34375.203124 1.984374.128907.640626.320313 1.257813.570313 1.84375 1.492187 3.53125 4.988281 6.007813 9.0625 6.007813h144.324219c4.074218 0 7.566406-2.476563 9.058594-6.007813.25-.585937.441406-1.203124.574218-1.84375.128906-.640624.199219-1.304687.199219-1.984374 0-.605469-.074219-1.191407-.179687-1.765626-.023438-.140624-.050782-.277343-.082032-.414062-.128906-.5625-.289062-1.109375-.507812-1.628906-.011719-.027344-.027344-.050782-.039063-.082032-.152343-.351562-.316406-.695312-.507812-1.023437-.007813.011719-.019531.023437-.027344.039063-1.695313-2.949219-4.84375-4.957032-8.488281-4.957032h-29.914063l-1.753906-3.011718c-.949219-1.632813-1.839844-3.289063-2.683594-4.972657-.28125-.554687-.523437-1.128906-.792969-1.695312-.539062-1.132813-1.085937-2.265625-1.578124-3.421875-.289063-.679688-.539063-1.375-.8125-2.058594-.417969-1.058594-.847657-2.113281-1.226563-3.183594-.265625-.742187-.492187-1.496094-.734375-2.246094-.335938-1.03125-.679688-2.066406-.980469-3.109374-1.949219-6.808594-3.121093-13.839844-3.4375-20.964844h106.082031c6.628907 0 12-5.371094 12-12v-166.664063c0-6.628906-5.371093-12-12-12zm0 0" fill="#382b73"/><path d="m373.132812 319.964844h-268.667968c-6.625 0-12-5.371094-12-12v-158.664063c0-6.628906 5.375-12 12-12h268.667968c6.628907 0 12 5.371094 12 12v158.664063c0 6.628906-5.371093 12-12 12zm0 0" fill="#d1d3d4"/><path d="m373.132812 311.964844h-268.667968c-6.625 0-12-5.371094-12-12v-158.664063c0-6.628906 5.375-12 12-12h268.667968c6.628907 0 12 5.371094 12 12v158.664063c0 6.628906-5.371093 12-12 12zm0 0" fill="#fff"/><path d="m369.800781 299.300781h-262c-2.210937 0-4-1.789062-4-4v-152c0-2.210937 1.789063-4 4-4h262c2.210938 0 4 1.789063 4 4v152c0 2.210938-1.789062 4-4 4zm0 0" fill="#ef5a9d"/><path d="m369.800781 139.300781h-262c-2.210937 0-4 1.792969-4 4v8c0-2.207031 1.789063-4 4-4h262c2.210938 0 4 1.792969 4 4v-8c0-2.210937-1.789062-4-4-4zm0 0" fill="#e43d91"/><path d="m281.050781 364.632812h-84.5l1.753907-3.011718c7.386718-12.691406 11.589843-26.984375 12.246093-41.652344h56.5c.65625 14.667969 4.859375 28.960938 12.246094 41.652344zm0 0" fill="#bcbec0"/><path d="m310.960938 384.300781h-144.324219c-5.429688 0-9.832031-4.402343-9.832031-9.835937 0-5.429688 4.402343-9.832032 9.832031-9.832032h144.324219c5.429687 0 9.835937 4.402344 9.835937 9.832032-.003906 5.433594-4.40625 9.835937-9.835937 9.835937zm0 0" fill="#fff"/><path d="m310.960938 374.464844h-144.324219c-3.640625 0-6.816407-1.976563-8.515625-4.917969-.835938 1.445313-1.316406 3.128906-1.316406 4.917969 0 5.429687 4.402343 9.832031 9.832031 9.832031h144.324219c5.429687 0 9.835937-4.402344 9.835937-9.832031 0-1.789063-.480469-3.46875-1.316406-4.917969-1.703125 2.941406-4.878907 4.917969-8.519531 4.917969zm0 0" fill="#d1d3d4"/><path d="m198.304688 361.621094-1.753907 3.011718h84.5l-1.753906-3.011718c-3.898437-6.695313-6.90625-13.832032-8.980469-21.238282h-63.035156c-2.070312 7.40625-5.082031 14.546876-8.976562 21.238282zm0 0" fill="#e6e7e8"/><path d="m336.066406 167.269531h-63.695312c-6.089844 0-11.027344 4.9375-11.027344 11.027344v32.753906l-14.898438 10.945313c-2.230468 1.636718-2.230468 4.964844 0 6.605468l14.898438 10.945313v32.753906c0 6.089844 4.9375 11.027344 11.027344 11.027344h63.695312c6.089844 0 11.03125-4.9375 11.03125-11.027344v-94.003906c0-6.089844-4.941406-11.027344-11.03125-11.027344zm0 0" fill="#e43d91"/><path d="m336.066406 161.066406h-63.695312c-6.089844 0-11.027344 4.9375-11.027344 11.03125v32.75l-14.898438 10.949219c-2.230468 1.636719-2.230468 4.964844 0 6.601563l14.898438 10.949218v32.753906c0 6.089844 4.9375 11.027344 11.027344 11.027344h63.695312c6.089844 0 11.03125-4.9375 11.03125-11.027344v-94.003906c0-6.09375-4.941406-11.03125-11.03125-11.03125zm0 0" fill="#fff"/><g fill="#1caee4"><path d="m331.046875 255.765625h-50.691406c-2.132813 0-3.859375-1.730469-3.859375-3.859375v-.878906c0-2.132813 1.726562-3.859375 3.859375-3.859375h50.691406c2.128906 0 3.855469 1.726562 3.855469 3.859375v.878906c0 2.128906-1.722656 3.859375-3.855469 3.859375zm0 0"/><path d="m331.046875 234.320312h-50.691406c-2.132813 0-3.859375-1.726562-3.859375-3.859374v-.878907c0-2.128906 1.726562-3.859375 3.859375-3.859375h50.691406c2.128906 0 3.855469 1.730469 3.855469 3.859375v.878907c0 2.132812-1.722656 3.859374-3.855469 3.859374zm0 0"/><path d="m331.046875 212.875h-50.691406c-2.132813 0-3.859375-1.726562-3.859375-3.855469v-.882812c0-2.128907 1.726562-3.855469 3.859375-3.855469h50.691406c2.128906 0 3.855469 1.726562 3.855469 3.855469v.882812c0 2.128907-1.722656 3.855469-3.855469 3.855469zm0 0"/><path d="m331.046875 191.433594h-50.691406c-2.132813 0-3.859375-1.726563-3.859375-3.859375v-.878907c0-2.128906 1.726562-3.855468 3.859375-3.855468h50.691406c2.128906 0 3.855469 1.726562 3.855469 3.855468v.878907c0 2.132812-1.722656 3.859375-3.855469 3.859375zm0 0"/></g><path d="m237.757812 276.070312c.03125-.207031.058594-.414062.078126-.625.007812-.074218.007812-.148437.011718-.226562.015625-.210938.019532-.425781.019532-.640625 0-.085937-.003907-.171875-.007813-.257813-.011719-.28125-.03125-.566406-.070313-.851562l-.183593-1.339844-.5625-4.050781-1.160157-8.339844-.980468-7.0625c-.777344-5.597656-4.085938-10.46875-8.890625-13.277343-.628907-.367188-1.28125-.703126-1.960938-.996094l-9.976562-3.371094c-.003907-.003906-.003907-.011719-.007813-.019531l-3.859375-1.304688c-.003906-.003906-.003906-.003906-.003906-.003906l-7.707031-2.601563.011718.023438-.207031-.070312-3.929687-4.632813-4.085938 3.308594 4.085938-3.308594v-6.039063c.59375-.777343 1.136718-1.597656 1.621094-2.460937.214843-.378906.417968-.765625.613281-1.160156.582031-1.175781 1.078125-2.417969 1.503906-3.695313.285156-.851562.535156-1.714844.761719-2.59375.289062-1.144531.527344-2.304687.730468-3.464844 2.425782-.105468 4.671876-3.195312 5.140626-7.222656.359374-3.046875-.398438-5.796875-1.796876-7.25.015626-.105468.027344-.21875.039063-.328125.015625-.152343.03125-.304687.046875-.453125.019531-.183594.035156-.359375.054688-.539062.011718-.15625.023437-.308594.035156-.460938.015625-.183594.027344-.363281.039062-.542968.011719-.15625.023438-.308594.03125-.460938.007813-.183594.015625-.363281.023438-.546875.007812-.152344.011718-.304687.015625-.457031.007812-.183594.007812-.363282.011719-.542969.003906-.152344.003906-.304687.003906-.457031 0-.179688 0-.359375-.003906-.539063 0-.152343-.003907-.304687-.007813-.453125-.003906-.179687-.011719-.355468-.019531-.535156-.007813-.148438-.015625-.296875-.023438-.441406-.011718-.179688-.027344-.355469-.039062-.53125-.011719-.144532-.023438-.289063-.039063-.433594-.015625-.179688-.039062-.351562-.058593-.527344-.015626-.136718-.03125-.277344-.050782-.414062-.027344-.179688-.054687-.355469-.085937-.53125-.023438-.128906-.042969-.261719-.0625-.390625-.035157-.179688-.074219-.359375-.113281-.539063-.027344-.117187-.046876-.234375-.078126-.351562-.042968-.191406-.097656-.382813-.148437-.574219-.027344-.09375-.050781-.191406-.078125-.285156-.082031-.277344-.171875-.554688-.269531-.824219-.300781-.832031-.691407-1.546875-1.136719-2.160156-.226562-.308594-.464844-.589844-.714844-.847656-.371094-.390626-.773437-.726563-1.1875-1.015626-1.25-.871093-2.632812-1.332031-3.851562-1.570312-.269532-.054688-.535156-.09375-.785156-.128906-.128907-.015625-.253907-.03125-.375-.042969 0 0 0 0-.003907 0-.148437-.015625-.289062-.023437-.425781-.035156-.039062-.003907-.074219-.007813-.109375-.007813-.109375-.007812-.210937-.011718-.308594-.015625-.03125-.003906-.058593-.003906-.085937-.003906-.113282-.003906-.21875-.007813-.320313-.007813-.007812 0-.011719 0-.019531 0-.023438 0-.039062 0-.058594 0-.085937 0-.167968 0-.246094 0-.027343 0-.050781.003907-.074218.003907-.074219 0-.140625.003906-.199219.003906-.011719 0-.027344 0-.039063.003906-.070312.003907-.125.003907-.175781.007813-.015625.003906-.027343.003906-.039062.003906-.039063 0-.066407.003906-.085938.003906-.011719 0-.015625 0-.019531.003906-.019531 0-.035156.003907-.035156.003907v.007812c-.003906-.015625-.007813-.03125-.011719-.046875 0 .003906.003906.007813.003906.011719-.003906-.023437-.011719-.042969-.019531-.066406-.015625-.046875-.027344-.09375-.042969-.140625-.011719-.046875-.03125-.097656-.046875-.144532-.019531-.054687-.039062-.109374-.058594-.164062-.023437-.074219-.054687-.144531-.082031-.214844-.019531-.046875-.039062-.097656-.058593-.144531-.011719-.03125-.023438-.058594-.039063-.085937-.03125-.070313-.066406-.140626-.101563-.210938-.03125-.070312-.0625-.136719-.097656-.203125-.011718-.019531-.019531-.042969-.03125-.0625-.027344-.054687-.0625-.101563-.089844-.15625-.046874-.082031-.09375-.160156-.144531-.242187-.015625-.023438-.03125-.050782-.046875-.074219-.035156-.050781-.066406-.101563-.105468-.15625-.042969-.066407-.085938-.128907-.128907-.191407-.035156-.046874-.070312-.09375-.109375-.140624-.039062-.054688-.082031-.109376-.121094-.164063-.03125-.039063-.0625-.074219-.089843-.113281-.035157-.039063-.070313-.078125-.105469-.117188-.066406-.078125-.128906-.152344-.199219-.230468-.011719-.011719-.023437-.027344-.035156-.039063-.007813-.007813-.011719-.011719-.015625-.019531-.03125-.027344-.0625-.058594-.089844-.089844-.101562-.101562-.199218-.203125-.308594-.304688-.007812-.011718-.019531-.019531-.03125-.027343-.050781-.050781-.105468-.09375-.15625-.144531-.082031-.070313-.160156-.140626-.246093-.214844-.003907-.003906-.011719-.007813-.015625-.007813-.035156-.03125-.074219-.058593-.113282-.089843-.0625-.050782-.125-.101563-.1875-.148438-.148437-.113281-.300781-.222656-.457031-.332031-.050781-.035157-.097656-.070313-.148437-.101563-.210938-.140625-.429688-.277344-.660156-.410156-.058594-.035156-.117188-.066406-.175782-.097656-.183594-.101563-.367187-.203125-.5625-.300782-.082031-.042968-.167968-.085937-.257812-.128906-.1875-.089844-.378906-.175781-.574219-.261718-.085937-.039063-.167969-.078126-.257813-.113282-.285156-.121094-.574218-.234375-.878906-.347656h-.003906c-1.6875-.617188-3.992188-1.082031-6.539062-1.078125-.007813 0-.015626 0-.019532 0-.730468.003906-1.484375.046875-2.25.132813-.0625.007812-.128906.015624-.191406.027343-.699219.085938-1.410156.214844-2.117188.386719-.125.03125-.242187.0625-.367187.09375-2.105469.558594-4.214844 1.523438-6.164063 3.046875-.367187.289063-.730468.605469-1.089843.9375-.363281.339844-.722657.695313-1.074219 1.082031-1.148438 1.269532-2.203125 2.796875-3.113281 4.617188-.171875.34375-.332031.6875-.488281 1.035156-.046876.113281-.09375.230469-.144532.34375-.101562.238281-.199218.476562-.292968.71875-.054688.132812-.101563.269531-.152344.40625-.085938.222656-.164063.449219-.242188.675781-.046875.140625-.097656.28125-.144531.421875-.070313.226563-.140625.453125-.207031.683594-.042969.140625-.085938.277344-.125.417969-.066406.242187-.132813.488281-.195313.730469-.03125.125-.0625.246093-.09375.371093-.078125.320313-.148437.640625-.214843.964844-.011719.046875-.023438.09375-.03125.140625-.078126.371094-.144532.742188-.207032 1.113281-.019531.105469-.035156.214844-.054687.324219-.042969.261719-.082031.527344-.121094.789062-.015625.136719-.035156.269532-.050781.40625-.03125.238282-.058594.472657-.082032.710938-.015624.140625-.03125.28125-.046874.425781-.019532.226563-.039063.460938-.058594.6875-.011719.140625-.023438.28125-.03125.421875-.015625.238282-.03125.476563-.042969.714844-.003906.125-.011719.25-.019531.375-.011719.289062-.019532.578125-.023438.863281-.003906.0625-.003906.128907-.007812.195313-2.441406.519531-4.011719 4.121094-3.527344 8.253906s2.84375 7.273438 5.339844 7.214844c.203125 1.164062.441406 2.328125.730468 3.472656.222657.878906.476563 1.746094.761719 2.597656.425781 1.277344.921875 2.515625 1.503907 3.695313.195312.390625.398437.777343.609374 1.15625.425782.757812.890626 1.484375 1.398438 2.175781.074219.097656.152344.1875.226562.285156v1.785156l.003907 4.253907 4.082031 3.308593-4.082031-3.308593-3.929688 4.636719-.191406.0625-3.371094 1.140624-18.191406 6.144532c-.714844.308594-1.40625.664062-2.066406 1.058594-.015625.007812-.03125.015624-.046875.023437-.015625.011719-.03125.023437-.050782.035156-4.695312 2.824219-7.921874 7.640625-8.6875 13.15625l-2.230468 16.0625-.378906 2.730469-.277344 2c-.039063.285156-.058594.570312-.070313.851562-.003906.085938-.003906.171876-.003906.257813-.003906.214844.003906.429687.015625.640625.003906.078125.007812.152344.011719.226562.019531.210938.046875.417969.082031.625l.003906-.023437c.105469.660156.28125 1.296875.53125 1.902344 1.285156 3.128906 4.355469 5.382812 8.019532 5.382812h90.019531c3.664062 0 6.734375-2.257812 8.019531-5.382812.25-.601563.425781-1.242188.535156-1.902344zm0 0" fill="#e43d91"/><path d="m229.199219 277.128906h-90.023438c-5.265625 0-9.308593-4.648437-8.585937-9.863281l2.882812-20.792969c.882813-6.324218 4.992188-11.734375 10.851563-14.273437l9.988281-3.371094 3.863281-1.304687 7.710938-2.609376 4.117187-1.386718h28.363282l9.652343 3.261718.949219.320313 15.078125 5.089844c5.859375 2.539062 9.972656 7.949219 10.851563 14.273437l.980468 7.066406 1.160156 8.339844.746094 5.386719c.726563 5.214844-3.320312 9.863281-8.585937 9.863281zm0 0" fill="#e6e7e8"/><path d="m133.476562 249.308594c.878907-6.324219 4.988282-11.734375 10.847657-14.273438l25.683593-8.671875h28.359376l25.683593 8.671875c5.855469 2.539063 9.96875 7.949219 10.847657 14.273438l2.855468 20.558594c.136719-.835938.15625-1.710938.03125-2.601563l-2.886718-20.792969c-.878907-6.324218-4.992188-11.734375-10.847657-14.269531l-25.683593-8.675781h-28.359376l-25.683593 8.671875c-5.859375 2.539062-9.96875 7.949219-10.847657 14.273437l-2.886718 20.792969c-.125.890625-.109375 1.765625.03125 2.601563zm0 0" fill="#fff"/><path d="m237.511719 265.265625c-1.0625 3.539063-4.339844 6.191406-8.3125 6.191406h-90.023438c-3.972656 0-7.25-2.652343-8.308593-6.191406l-.277344 2c-.726563 5.210937 3.324218 9.863281 8.585937 9.863281h90.023438c5.261719 0 9.3125-4.648437 8.585937-9.863281zm0 0" fill="#d1d3d4"/><path d="m202.648438 225.269531-4.28125-5.054687-14.179688 11.492187-14.183594-11.488281-4.28125 5.050781c-.878906 1.921875-.863281 4.132813.054688 6.035157l13.335937 27.722656 5.070313 10.539062 18.410156-38.261718c.917969-1.902344.9375-4.117188.054688-6.035157zm0 0" fill="#e6e7e8"/><path d="m191.421875 277.128906-4.59375-38.425781h-5.285156l-4.589844 38.425781zm0 0" fill="#1caee4"/><path d="m177.632812 271.457031-.679687 5.671875h14.46875l-.679687-5.671875zm0 0" fill="#009add"/><path d="m170.007812 206.746094v13.46875l14.179688 11.492187 14.179688-11.492187v-13.46875zm0 0" fill="#f6ca14"/><path d="m184.1875 231.707031-11.316406 14.335938-7.078125-14.730469c-.921875-1.90625-.945313-4.125-.0625-6.050781l4.277343-5.042969zm0 0" fill="#d0d2d3"/><path d="m184.1875 231.707031 11.316406 14.335938 7.082032-14.730469c.921874-1.90625.941406-4.125.058593-6.050781l-4.277343-5.042969zm0 0" fill="#d0d2d3"/><path d="m188.925781 238.757812-2.730469 2.726563c-1.109374 1.113281-2.90625 1.113281-4.015624 0l-2.730469-2.726563c-1.109375-1.109374-1.109375-2.910156 0-4.019531l.691406-.691406c2.234375-2.234375 5.859375-2.234375 8.09375 0l.695313.691406c1.105468 1.109375 1.105468 2.90625-.003907 4.019531zm0 0" fill="#23c1e6"/><path d="m188.609375 234.421875-3 3c-.785156.785156-2.058594.785156-2.84375 0l-3-3-.902344.90625c-.785156.785156-.785156 2.054687 0 2.84375l3.902344 3.902344c.785156.785156 2.054687.785156 2.84375 0l3.90625-3.902344c.78125-.785156.78125-2.058594 0-2.84375zm0 0" fill="#1cade3"/><path d="m204.515625 188.878906c0 12.011719-2.175781 31.957032-20.328125 31.957032s-20.324219-19.945313-20.324219-31.957032c0-12.007812 1.890625-21.742187 20.324219-21.742187 18.4375 0 20.328125 9.734375 20.328125 21.742187zm0 0" fill="#fff235"/><path d="m184.1875 215.164062c-16.777344 0-19.90625-17.042968-20.28125-29.105468-.03125.921875-.042969 1.867187-.042969 2.820312 0 12.011719 2.171875 31.957032 20.324219 31.957032s20.328125-19.945313 20.328125-31.957032c0-.953125-.011719-1.898437-.046875-2.820312-.375 12.0625-3.503906 29.105468-20.28125 29.105468zm0 0" fill="#fddd3a"/><path d="m168.839844 192.476562c.503906 4.285157-1.195313 8.003907-3.792969 8.308594-2.597656.304688-5.105469-2.921875-5.609375-7.207031-.5-4.28125 1.195312-8.003906 3.792969-8.304687 2.59375-.304688 5.109375 2.921874 5.609375 7.203124zm0 0" fill="#fff235"/><path d="m199.339844 192.476562c-.5 4.285157 1.195312 8.003907 3.792968 8.308594 2.597657.304688 5.109376-2.921875 5.609376-7.207031.503906-4.28125-1.195313-8.003906-3.792969-8.304687-2.59375-.304688-5.105469 2.921874-5.609375 7.203124zm0 0" fill="#fff235"/><path d="m164.859375 193.671875c-.261719-2.21875-.210937-4.296875.082031-5.984375-.113281-.003906-.222656 0-.332031.011719-2.0625.242187-3.441406 2.917969-3.082031 5.976562.355468 3.054688 2.316406 5.339844 4.378906 5.097657.042969-.007813.082031-.019532.128906-.027344-.539062-1.445313-.957031-3.183594-1.175781-5.074219zm0 0" fill="#fddd3a"/><path d="m203.515625 193.671875c.261719-2.21875.210937-4.296875-.082031-5.984375.109375-.003906.21875 0 .332031.011719 2.058594.242187 3.441406 2.917969 3.082031 5.976562-.144531 1.21875-.550781 2.441407-1.28125 3.441407-.304687.421874-.671875.804687-1.097656 1.101562-.316406.21875-.933594.617188-1.332031.539062.039062-.261718-.003907-.53125-.113281-.769531-.03125-.0625-.0625-.125-.089844-.1875-.253906-.582031.101562-1.339843.222656-1.921875.15625-.730468.273438-1.46875.359375-2.207031zm0 0" fill="#fddd3a"/><path d="m194.476562 176.1875s-4.367187 6.761719-11.960937 7.386719-12.949219 1.085937-15.0625 4.832031.054687 10.800781-1.628906 10.800781c-1.683594 0-5.613281-16.164062.210937-27.820312 5.828125-11.652344 17.519532-11.222657 22.929688-9.246094s7.175781 5.097656 7.175781 8.324219c0 3.226562-1.664063 5.722656-1.664063 5.722656zm0 0" fill="#1cade3"/><path d="m192.265625 163.761719c.738281 1.222656 1.039063 2.535156 1.039063 3.867187 0 3.226563-1.664063 5.722656-1.664063 5.722656s-4.367187 6.761719-11.960937 7.386719-12.949219 1.085938-15.0625 4.832031c-1.304688 2.3125-.976563 5.882813-.933594 8.28125.628906 3.246094 1.53125 5.355469 2.140625 5.355469 1.6875 0-.484375-7.054687 1.628906-10.800781s7.46875-4.207031 15.0625-4.832031 11.960937-7.386719 11.960937-7.386719 1.664063-2.496094 1.664063-5.722656c0-2.445313-1.019531-4.832032-3.875-6.703125zm0 0" fill="#0099dc"/><path d="m195.871094 168.375s7.875-.859375 10.292968 5.800781c3.199219 8.792969-1.546874 24.605469-2.972656 24.605469-1.425781 0 .472656-7.75-1.675781-14.6875s-7.34375-7.472656-7.34375-7.472656zm0 0" fill="#1cade3"/><path d="m204.351562 181.257812c-2.148437-6.9375-7.34375-7.472656-7.34375-7.472656l1.109376-5.375c-1.316407-.136718-2.246094-.035156-2.246094-.035156l-1.695313 8.246094s5.195313.535156 7.34375 7.472656c2.144531 6.9375.25 14.6875 1.675781 14.6875.5 0 1.414063-1.960938 2.246094-4.886719-.046875-2.761719.378906-7.890625-1.089844-12.636719zm0 0" fill="#0099dc"/><path d="m166.601562 172.808594c5.828126-11.652344 17.519532-11.222656 22.929688-9.246094 3.375 1.234375 5.332031 2.914062 6.328125 4.785156-.683594-2.433594-2.6875-4.664062-6.898437-6.203125-5.410157-1.976562-17.101563-2.40625-22.925782 9.246094-5.015625 10.035156-2.804687 23.414063-1.011718 26.9375-1.609376-4.875-2.910157-16.539063 1.578124-25.519531zm0 0" fill="#23c1e6"/><path d="m206.164062 174.179688c-2.421874-6.664063-10.296874-5.800782-10.296874-5.800782l-.285157 1.386719c1.84375-.050781 7.703125.246094 9.730469 5.832031 2.59375 7.136719-.042969 18.894532-1.890625 23.074219 1.640625-1.421875 5.78125-16.132813 2.742187-24.492187zm0 0" fill="#23c1e6"/><path d="m184.1875 231.707031-12.296875 12.296875-6.097656-12.691406c-.921875-1.90625-.945313-4.125-.0625-6.050781l4.277343-5.042969zm0 0" fill="#fff"/><path d="m184.1875 231.707031 12.296875 12.300781 6.101563-12.695312c.921874-1.90625.941406-4.125.058593-6.050781l-4.277343-5.042969zm0 0" fill="#fff"/><path d="m270.300781 141.300781c0 17.394531-14.105469 31.5-31.5 31.5-17.398437 0-31.5-14.105469-31.5-31.5 0-17.398437 14.101563-31.5 31.5-31.5 17.394531 0 31.5 14.101563 31.5 31.5zm0 0" fill="#e7ad27"/><path d="m270.300781 137.300781c0 17.394531-14.105469 31.5-31.5 31.5-17.398437 0-31.5-14.105469-31.5-31.5 0-17.398437 14.101563-31.5 31.5-31.5 17.394531 0 31.5 14.101563 31.5 31.5zm0 0" fill="#fede3a"/><path d="m238.800781 161.753906c-13.484375 0-24.453125-10.96875-24.453125-24.453125s10.96875-24.453125 24.453125-24.453125 24.453125 10.96875 24.453125 24.453125-10.96875 24.453125-24.453125 24.453125zm0-44.542968c-11.078125 0-20.089843 9.011718-20.089843 20.089843 0 11.074219 9.011718 20.085938 20.089843 20.085938 11.074219 0 20.085938-9.011719 20.085938-20.085938 0-11.078125-9.011719-20.089843-20.085938-20.089843zm0 0" fill="#1caee4"/><path d="m261.070312 137.300781c0-12.300781-9.96875-22.269531-22.269531-22.269531s-22.269531 9.96875-22.269531 22.269531 9.96875 22.269531 22.269531 22.269531 22.269531-9.96875 22.269531-22.269531zm-22.269531 20.085938c-11.078125 0-20.089843-9.011719-20.089843-20.085938 0-11.078125 9.011718-20.089843 20.089843-20.089843 11.074219 0 20.085938 9.011718 20.085938 20.089843 0 11.074219-9.011719 20.085938-20.085938 20.085938zm0 0" fill="#009add"/><path d="m238.800781 161.753906c-7.917969 0-14.121093-10.742187-14.121093-24.453125 0-13.710937 6.203124-24.453125 14.121093-24.453125s14.121094 10.742188 14.121094 24.453125c0 13.710938-6.203125 24.453125-14.121094 24.453125zm0-44.542968c-4.613281 0-9.753906 8.25-9.753906 20.089843 0 11.835938 5.140625 20.085938 9.753906 20.085938 4.609375 0 9.75-8.25 9.75-20.085938 0-11.839843-5.140625-20.089843-9.75-20.089843zm0 0" fill="#1caee4"/><path d="m250.734375 137.300781c0-12.300781-5.34375-22.269531-11.933594-22.269531-6.59375 0-11.9375 9.96875-11.9375 22.269531s5.34375 22.269531 11.9375 22.269531c6.589844 0 11.933594-9.96875 11.933594-22.269531zm-11.933594 20.085938c-4.613281 0-9.753906-8.25-9.753906-20.085938 0-11.839843 5.140625-20.089843 9.753906-20.089843 4.609375 0 9.75 8.25 9.75 20.089843 0 11.835938-5.140625 20.085938-9.75 20.085938zm0 0" fill="#009add"/><path d="m236.617188 115.03125h4.363281v44.539062h-4.363281zm0 0" fill="#1caee4"/><path d="m216.53125 135.117188h44.539062v4.363281h-44.539062zm0 0" fill="#1caee4"/></svg>